<svg width="395" height="350" viewBox="0 0 395 350" fill="none" xmlns="http://www.w3.org/2000/svg">
<!-- fundo elipse sutil -->
<ellipse cx="197.5" cy="270" rx="170" ry="50" fill="#D4DCEE" opacity="0.5"/>
<!-- smartphone central -->
<rect x="137" y="40" width="121" height="220" rx="18" fill="#143396"/>
<rect x="147" y="55" width="101" height="160" rx="8" fill="#EDF1F9"/>
<!-- tela: ícones de app -->
<circle cx="175" cy="90" r="16" fill="#6B85C2"/>
<circle cx="197.5" cy="90" r="16" fill="#143396"/>
<circle cx="220" cy="90" r="16" fill="#0C1E5C"/>
<rect x="155" y="116" width="85" height="8" rx="4" fill="#C0D1D9"/>
<rect x="163" y="132" width="69" height="6" rx="3" fill="#D4DCEE"/>
<rect x="155" y="148" width="85" height="30" rx="6" fill="#6B85C2" opacity="0.5"/>
<rect x="155" y="186" width="85" height="20" rx="6" fill="#6B85C2" opacity="0.3"/>
<!-- botão home -->
<circle cx="197.5" cy="236" r="9" fill="#EDF1F9" stroke="#143396" stroke-width="2"/>
<!-- texto IXPHONE no smartphone -->
<text x="197.5" y="215" font-family="Arial,sans-serif" font-weight="700" font-size="11" fill="#143396" text-anchor="middle" letter-spacing="1">IXPHONE</text>
<!-- sombra inferior -->
<ellipse cx="197.5" cy="270" rx="65" ry="12" fill="#143396" opacity="0.15"/>
<!-- decoração lateral esquerda -->
<rect x="55" y="120" width="60" height="110" rx="12" fill="#6B85C2" opacity="0.3"/>
<rect x="63" y="130" width="44" height="70" rx="6" fill="#D4DCEE" opacity="0.6"/>
<!-- decoração lateral direita -->
<rect x="280" y="100" width="60" height="130" rx="12" fill="#143396" opacity="0.25"/>
<rect x="288" y="110" width="44" height="90" rx="6" fill="#D4DCEE" opacity="0.5"/>
</svg>
